<svg version="1.2" xmlns="http://www.w3.org/2000/svg" viewBox="0 0 952 996" width="952" height="996"><defs><clipPath clipPathUnits="userSpaceOnUse" id="cp1"><path d="m-968 0h1920v4622h-1920z"/></clipPath><linearGradient id="P" gradientUnits="userSpaceOnUse"/><radialGradient id="g1" cx="524" cy="489" r="279.6" href="#P"><stop stop-color="#eaeaea"/><stop offset="1" stop-color="#989898"/></radialGradient><radialGradient id="g2" cx="179" cy="716.5" r="139.2" href="#P"><stop stop-color="#eaeaea"/><stop offset="1" stop-color="#989898"/></radialGradient><radialGradient id="g3" cx="906" cy="42.5" r="139.2" href="#P"><stop stop-color="#eaeaea"/><stop offset="1" stop-color="#989898"/></radialGradient><radialGradient id="g4" cx="361.4" cy="213" r="326.6" href="#P"><stop stop-color="#eaeaea"/><stop offset="1" stop-color="#989898"/></radialGradient><radialGradient id="g5" cx="791.7" cy="823.5" r="331.2" href="#P"><stop stop-color="#eaeaea"/><stop offset="1" stop-color="#989898"/></radialGradient></defs><style>.a{fill:#eaeaea;stroke:#707070}.b{fill:url(#g1)}.c{fill:url(#g2)}.d{fill:url(#g3)}.e{fill:url(#g4)}.f{fill:url(#g5)}</style><g clip-path="url(#cp1)"><path class="a" d="m0 0h960v887h-960z"/><path class="b" d="m524 717c-126.1 0-228-101.9-228-228 0-126.1 101.9-228 228-228 126.1 0 228 101.9 228 228 0 126.1-101.9 228-228 228z"/><path class="c" d="m179 818c-55.9 0-101-45.4-101-101.5 0-56.1 45.1-101.5 101-101.5 55.9 0 101 45.4 101 101.5 0 56.1-45.1 101.5-101 101.5z"/><path class="d" d="m906 144c-55.9 0-101-45.4-101-101.5 0-56.1 45.1-101.5 101-101.5 55.9 0 101 45.4 101 101.5 0 56.1-45.1 101.5-101 101.5z"/><path class="e" d="m356 389c-92.9 0-168-75.3-168-168.5 0-93.2 75.1-168.5 168-168.5 92.9 0 168 75.3 168 168.5 0 93.2-75.1 168.5-168 168.5z"/><path class="f" d="m785.5 996c-92.1 0-166.5-74.2-166.5-166 0-91.8 74.4-166 166.5-166 92.1 0 166.5 74.2 166.5 166 0 91.8-74.4 166-166.5 166z"/></g></svg>